<svg width="160" height="160" viewBox="0 0 160 160" fill="none" xmlns="http://www.w3.org/2000/svg">
<path fill-rule="evenodd" clip-rule="evenodd" d="M78.2499 10.4065L29.1797 38.8853C27.4564 39.8855 26.3958 41.7272 26.3958 43.7196V100.2C26.3958 102.267 27.5368 104.166 29.3624 105.136L78.4354 131.215C80.0912 132.094 82.0779 132.086 83.7259 131.191L131.681 105.161C133.482 104.183 134.604 102.298 134.604 100.248V43.6705C134.604 41.6966 133.563 39.869 131.865 38.8624L83.9069 10.4326C82.1651 9.40011 80.0012 9.3901 78.2499 10.4065ZM27.977 36.8134L77.0473 8.33461C79.549 6.88267 82.6404 6.89698 85.1287 8.372L133.087 36.8018C135.513 38.2398 137 40.8507 137 43.6705V100.248C137 103.176 135.398 105.869 132.824 107.266L84.8689 133.296C82.5147 134.574 79.6765 134.587 77.3111 133.33L28.2381 107.251C25.6301 105.865 24 103.153 24 100.2V43.7196C24 40.8733 25.5152 38.2422 27.977 36.8134Z" fill="#335D79"/>
<path fill-rule="evenodd" clip-rule="evenodd" d="M78.2499 10.4065L29.1797 38.8853C27.4564 39.8855 26.3958 41.7272 26.3958 43.7196V100.2C26.3958 102.267 27.5368 104.166 29.3624 105.136L78.4354 131.215C80.0912 132.094 82.0779 132.086 83.7259 131.191L131.681 105.161C133.482 104.183 134.604 102.298 134.604 100.248V43.6705C134.604 41.6966 133.563 39.869 131.865 38.8624L83.9069 10.4326C82.1651 9.40011 80.0012 9.3901 78.2499 10.4065ZM27.977 36.8134L77.0473 8.33461C79.549 6.88267 82.6404 6.89698 85.1287 8.372L133.087 36.8018C135.513 38.2398 137 40.8507 137 43.6705V100.248C137 103.176 135.398 105.869 132.824 107.266L84.8689 133.296C82.5147 134.574 79.6765 134.587 77.3111 133.33L28.2381 107.251C25.6301 105.865 24 103.153 24 100.2V43.7196C24 40.8733 25.5152 38.2422 27.977 36.8134Z" fill="#67402F"/>
<path fill-rule="evenodd" clip-rule="evenodd" d="M78.3333 12.6424L31.081 40.0662C29.4216 41.0293 28.4002 42.8028 28.4002 44.7214V99.1095C28.4002 101.1 29.499 102.928 31.257 103.862L78.512 128.975C80.1064 129.822 82.0195 129.814 83.6064 128.952L129.785 103.886C131.52 102.945 132.6 101.129 132.6 99.1557V44.6741C132.6 42.7733 131.597 41.0135 129.962 40.0441L83.7807 12.6676C82.1035 11.6733 80.0197 11.6637 78.3333 12.6424ZM29.9229 38.0711L77.1753 10.6473C79.5843 9.24916 82.5612 9.26294 84.9572 10.6833L131.139 38.0598C133.475 39.4446 134.907 41.9587 134.907 44.6741V99.1557C134.907 101.975 133.364 104.568 130.886 105.913L84.7071 130.98C82.4401 132.21 79.7071 132.222 77.4293 131.012L30.1743 105.899C27.6629 104.565 26.0932 101.953 26.0932 99.1095V44.7214C26.0932 41.9806 27.5523 39.4469 29.9229 38.0711Z" fill="#C470CA"/>
<path fill-rule="evenodd" clip-rule="evenodd" d="M78.3333 12.6424L31.081 40.0662C29.4216 41.0293 28.4002 42.8028 28.4002 44.7214V99.1095C28.4002 101.1 29.499 102.928 31.257 103.862L78.512 128.975C80.1064 129.822 82.0195 129.814 83.6064 128.952L129.785 103.886C131.52 102.945 132.6 101.129 132.6 99.1557V44.6741C132.6 42.7733 131.597 41.0135 129.962 40.0441L83.7807 12.6676C82.1035 11.6733 80.0197 11.6637 78.3333 12.6424ZM29.9229 38.0711L77.1753 10.6473C79.5843 9.24916 82.5612 9.26294 84.9572 10.6833L131.139 38.0598C133.475 39.4446 134.907 41.9587 134.907 44.6741V99.1557C134.907 101.975 133.364 104.568 130.886 105.913L84.7071 130.98C82.4401 132.21 79.7071 132.222 77.4293 131.012L30.1743 105.899C27.6629 104.565 26.0932 101.953 26.0932 99.1095V44.7214C26.0932 41.9806 27.5523 39.4469 29.9229 38.0711Z" fill="#997160"/>
</svg>
